<?xml version="1.0" encoding="UTF-8" standalone="no"?>
<!-- Created with Inkscape (http://www.inkscape.org/) -->
<svg xmlns:inkscape="http://www.inkscape.org/namespaces/inkscape" xmlns:rdf="http://www.w3.org/1999/02/22-rdf-syntax-ns#" xmlns="http://www.w3.org/2000/svg" xmlns:xlink="http://www.w3.org/1999/xlink" xmlns:ns1="http://sozi.baierouge.fr" xmlns:cc="http://creativecommons.org/ns#" xmlns:sodipodi="http://sodipodi.sourceforge.net/DTD/sodipodi-0.dtd" xmlns:dc="http://purl.org/dc/elements/1.1/" id="svg2996" viewBox="0 0 128 128" version="1.1" inkscape:version="0.91 r13725">
  <g id="layer1" transform="translate(-310.29 -522.65)">
    <path id="rect3491-1-1" style="fill:#000000" d="m372.05 558.42c-0.59891 0-0.77441 0.45947-1.0528 0.88012l-4.5733 6.9031h-5.5569l9.1811 9.1811c3.491-3.1516 7.9998-5.1428 12.684-5.1428 10.114 0 19.467 9.318 19.467 19.432 0 4.6883-2.0155 9.1922-5.1773 12.684l10.458 10.458c0.3372-0.59521 0.53501-1.2684 0.53501-2.0019v-40.538c0-2.2468-1.7921-4.0728-4.0383-4.0728h-4.9012l-4.556-6.9031c-0.27817-0.42065-0.47095-0.88012-1.0699-0.88012h-21.399zm-27.44 7.7832c-2.246 0-4.0555 1.826-4.0555 4.0728v40.538c0 2.2455 1.8094 4.0728 4.0555 4.0728h50.876l-6.8513-6.8513c-1.8898 0.67368-3.8828 1.0528-5.9021 1.0528-10.114 0-19.398-9.3008-19.398-19.415 0-2.0194 0.36183-4.0138 1.0354-5.9021l-17.568-17.568h-2.1918zm3.3825 9.0948h0.62128c0.93534 0 1.674 0.75586 1.674 1.6913v25.334c0 0.93529-0.73879 1.6912-1.674 1.6912h-0.62128c-0.93506 0-1.6912-0.75602-1.6912-1.6912v-25.334c0-0.93545 0.75613-1.6913 1.6912-1.6913zm34.74 0.0171c-3.5586 0-6.8065 1.2968-9.3018 3.4515l1.7948 1.7948c0.94119-0.71323 1.9794-1.2787 3.0718-1.5877 0.34715-0.10791 0.71345-0.16468 1.07-0.22437l-0.0171-0.0171c1.0698-0.1807 2.1728-0.16755 3.2444 0 0.58218 0.20554 0.91684 0.45499 0.53496 0.81113-0.65396 0.36404-1.4083 0.58124-2.0536 0.98366-1.2421 0.66214-2.3613 1.5556-3.3135 2.5886l9.9749 9.9577c0.30158-1.3568 1.5006-2.3643 2.9511-2.3643 1.6796 0 3.0546 1.3407 3.0546 3.0201 0 1.4556-1.0298 2.6548-2.3988 2.9511l2.2953 2.2952c2.1397-2.5039 3.4342-5.7521 3.4342-9.3018 0-7.9115-6.4301-14.358-14.341-14.358zm-14.169 12.65c-0.0659 0.55953-0.10349 1.1314-0.10349 1.7085 0 7.9115 6.3604 14.324 14.272 14.324 0.59449 0 1.1847-0.0331 1.7603-0.10354l-10.027-10.027c0.0926 0.56141 0.2135 1.1188 0.36238 1.674 0.0193 0.29115-0.23807 0.53662-0.51773 0.55225-0.37381-0.13177-0.58372-0.42131-0.82836-0.70759-1.3436-1.5-2.2753-3.2252-2.5886-5.091l-2.3298-2.3298z"/>
    <path id="path4320-7" style="block-progression:tb;text-indent:0;color:#000000;text-transform:none;fill:#d34834" d="m374.29 522.65c-35.286 0-64.009 28.723-64.009 64.009s28.723 63.991 64.009 63.991 63.991-28.705 63.991-63.991-28.705-64.009-63.991-64.009zm0 9.9577c29.914 0 54.051 24.137 54.051 54.051 0 13.961-5.2607 26.662-13.91 36.241l-76.4-76.4c9.5789-8.6489 22.298-13.892 36.258-13.892zm-40.141 17.81 76.382 76.4c-9.5788 8.6489-22.28 13.892-36.241 13.892-29.914 0-54.068-24.137-54.068-54.051 0-13.965 5.2734-26.661 13.927-36.241z"/>
  </g>
  <metadata>
    <rdf:RDF>
      <cc:Work>
        <dc:format>image/svg+xml</dc:format>
        <dc:type rdf:resource="http://purl.org/dc/dcmitype/StillImage"/>
        <cc:license rdf:resource="http://creativecommons.org/licenses/publicdomain/"/>
        <dc:publisher>
          <cc:Agent rdf:about="http://openclipart.org/">
            <dc:title>Openclipart</dc:title>
          </cc:Agent>
        </dc:publisher>
      </cc:Work>
      <cc:License rdf:about="http://creativecommons.org/licenses/publicdomain/">
        <cc:permits rdf:resource="http://creativecommons.org/ns#Reproduction"/>
        <cc:permits rdf:resource="http://creativecommons.org/ns#Distribution"/>
        <cc:permits rdf:resource="http://creativecommons.org/ns#DerivativeWorks"/>
      </cc:License>
    </rdf:RDF>
  </metadata>
</svg>
